ply
format ascii 1.0
comment VCGLIB generated
element vertex 14
property float x
property float y
property float z
property float nx
property float ny
property float nz
property float texture_u
property float texture_v
element face 12
property list uchar int vertex_indices
end_header
-0.5 -0.5 -0.5 -2 0 0 0.375 0
-0.5 -0.5 0.5 -1 0 0 0.625 0
-0.5 0.5 0.5 -2 1 0 0.625 0.25
-0.5 0.5 -0.5 -1 2 0 0.375 0.25
0.5 0.5 0.5 1 2 2 0.625 0.5
0.5 0.5 -0.5 2 1 -1 0.375 0.5
0.5 -0.5 0.5 2 -1 1 0.625 0.75
0.5 -0.5 -0.5 1 -2 -2 0.375 0.75
-0.5 -0.5 0.5 0 -2 0 0.625 1
-0.5 -0.5 -0.5 0 -1 0 0.375 1
-0.5 0.5 -0.5 0 0 -2 0.125 0.5
-0.5 -0.5 -0.5 0 0 -1 0.125 0.75
-0.5 0.5 0.5 0 0 1 0.875 0.5
-0.5 -0.5 0.5 0 0 2 0.875 0.75
3 0 1 2 
3 0 2 3 
3 3 2 4 
3 3 4 5 
3 5 4 6 
3 5 6 7 
3 7 6 8 
3 7 8 9 
3 10 5 7 
3 10 7 11 
3 4 12 13 
3 4 13 6 
